<svg width="25" height="35" viewBox="0 0 25 35" fill="none" xmlns="http://www.w3.org/2000/svg">
<g clip-path="url(#clip0_405_9847)">
<path d="M24.3126 0H0.687406C0.307985 0 0 0.312402 0 0.697266V34.3027C0 34.6876 0.307985 35 0.687406 35H18.6516C18.8336 35 19.0088 34.9262 19.1375 34.7956L24.7985 29.0534C24.9272 28.9229 25 28.7451 25 28.5605V0.697266C25 0.312402 24.692 0 24.3126 0ZM19.3377 32.6211L19.335 29.2537L22.6547 29.2571L19.3377 32.6211ZM23.6252 27.8633L18.6476 27.8585H18.6469C18.4649 27.8585 18.2897 27.9323 18.161 28.0629C18.0323 28.1941 17.9595 28.3712 17.9595 28.5564L17.9642 33.6055H1.37481V1.39453H23.6252V27.8633Z" fill="#999999"/>
<path d="M7.04252 25.1549C5.31389 25.1549 3.90808 26.5809 3.90808 28.3343C3.90808 30.0877 5.31457 31.5137 7.04252 31.5137C8.77114 31.5137 10.177 30.0877 10.177 28.3343C10.1776 26.5809 8.77114 25.1549 7.04252 25.1549ZM7.04252 30.1198C6.07206 30.1198 5.28222 29.3187 5.28222 28.3343C5.28222 27.3499 6.07139 26.5494 7.04252 26.5494C8.01365 26.5494 8.80281 27.3499 8.80281 28.3343C8.80281 29.3187 8.01297 30.1198 7.04252 30.1198Z" fill="#00A0FF"/>
<path d="M16.0051 27.7491H12.2244C11.845 27.7491 11.537 28.0615 11.537 28.4464C11.537 28.8312 11.845 29.1436 12.2244 29.1436H16.0051C16.3845 29.1436 16.6925 28.8312 16.6925 28.4464C16.6925 28.0615 16.3852 27.7491 16.0051 27.7491Z" fill="#999999"/>
<path d="M6.79447 4.18292H4.80166C4.42224 4.18292 4.11426 4.49533 4.11426 4.88019C4.11426 5.26505 4.42224 5.57746 4.80166 5.57746H6.79514C7.17456 5.57746 7.48255 5.26505 7.48255 4.88019C7.48255 4.49533 7.17456 4.18292 6.79447 4.18292Z" fill="#999999"/>
<path d="M20.4732 4.18292H14.4934C14.114 4.18292 13.806 4.49533 13.806 4.88019C13.806 5.26505 14.114 5.57746 14.4934 5.57746H20.4732C20.8526 5.57746 21.1606 5.26505 21.1606 4.88019C21.1606 4.49533 20.8526 4.18292 20.4732 4.18292Z" fill="#00A0FF"/>
<path d="M20.4732 7.18115H10.3003C9.9209 7.18115 9.61292 7.49355 9.61292 7.87842C9.61292 8.26328 9.9209 8.57568 10.3003 8.57568H20.4732C20.8527 8.57568 21.1606 8.26328 21.1606 7.87842C21.1606 7.49355 20.8527 7.18115 20.4732 7.18115Z" fill="#00A0FF"/>
<path d="M20.5077 12.6888H4.49246C4.11304 12.6888 3.80505 13.0012 3.80505 13.3861C3.80505 13.771 4.11304 14.0834 4.49246 14.0834H20.5077C20.8871 14.0834 21.1951 13.771 21.1951 13.3861C21.1951 13.0012 20.8871 12.6888 20.5077 12.6888Z" fill="#999999"/>
<path d="M20.5077 15.0596H4.49246C4.11304 15.0596 3.80505 15.372 3.80505 15.7568C3.80505 16.1417 4.11304 16.4541 4.49246 16.4541H20.5077C20.8871 16.4541 21.1951 16.1417 21.1951 15.7568C21.1951 15.372 20.8871 15.0596 20.5077 15.0596Z" fill="#999999"/>
<path d="M20.5077 17.6394H4.49246C4.11304 17.6394 3.80505 17.9518 3.80505 18.3367C3.80505 18.7215 4.11304 19.0339 4.49246 19.0339H20.5077C20.8871 19.0339 21.1951 18.7215 21.1951 18.3367C21.1951 17.9518 20.8871 17.6394 20.5077 17.6394Z" fill="#999999"/>
<path d="M20.5076 20.0102H20.1295C19.7501 20.0102 19.4421 20.3226 19.4421 20.7075C19.4421 21.0923 19.7501 21.4047 20.1295 21.4047H20.5076C20.887 21.4047 21.195 21.0923 21.195 20.7075C21.195 20.3219 20.887 20.0102 20.5076 20.0102Z" fill="#999999"/>
<path d="M17.7237 20.0102H4.49246C4.11304 20.0102 3.80505 20.3226 3.80505 20.7075C3.80505 21.0923 4.11304 21.4047 4.49246 21.4047H17.7243C18.1038 21.4047 18.4118 21.0923 18.4118 20.7075C18.4111 20.3219 18.1031 20.0102 17.7237 20.0102Z" fill="#999999"/>
</g>
<defs>
<clipPath id="clip0_405_9847">
<rect width="25" height="35" fill="white"/>
</clipPath>
</defs>
</svg>
